<svg width="16" height="14" viewBox="0 0 16 14" fill="none" xmlns="http://www.w3.org/2000/svg">
<g clip-path="url(#clip0_234_573)">
<path d="M15.4196 7.79452C15.859 7.35507 15.859 6.64139 15.4196 6.20194L9.79456 0.57694C9.3551 0.137486 8.64143 0.137486 8.20198 0.576939C7.76253 1.01639 7.76253 1.73007 8.20198 2.16952L11.911 5.87499L1.12502 5.87499C0.502759 5.87499 2.48442e-05 6.37772 2.47898e-05 6.99999C2.47354e-05 7.62225 0.502759 8.12499 1.12502 8.12499L11.9074 8.12499L8.20549 11.8305C7.76604 12.2699 7.76604 12.9836 8.20549 13.423C8.64495 13.8625 9.35862 13.8625 9.79807 13.423L15.4231 7.79803L15.4196 7.79452Z" fill="white"/>
</g>
<defs>
<clipPath id="clip0_234_573">
<rect width="16" height="14" fill="white" transform="translate(16 14) rotate(-180)"/>
</clipPath>
</defs>
</svg>
