<svg width="28" height="23" viewBox="0 0 28 23" fill="none" xmlns="http://www.w3.org/2000/svg">
<path d="M12.1333 22.0225C12.6583 22.208 13.2222 21.8223 13.2222 21.2656V2.83789C13.2222 2.63281 13.1444 2.42773 12.9792 2.30078C12.0264 1.53906 9.83889 0.5625 7 0.5625C4.54514 0.5625 2.25069 1.21191 0.879861 1.73926C0.330556 1.9541 0 2.50098 0 3.0918V21.1729C0 21.7539 0.622222 22.1592 1.17153 21.9785C2.70278 21.4658 5.12847 20.875 7 20.875C8.64792 20.875 10.8403 21.5586 12.1333 22.0225ZM15.8667 22.0225C17.1597 21.5586 19.3521 20.875 21 20.875C22.8715 20.875 25.2972 21.4658 26.8285 21.9785C27.3778 22.1641 28 21.7539 28 21.1729V3.0918C28 2.50098 27.6694 1.9541 27.1201 1.74414C25.7493 1.21191 23.4549 0.5625 21 0.5625C18.1611 0.5625 15.9736 1.53906 15.0208 2.30078C14.8604 2.42773 14.7778 2.63281 14.7778 2.83789V21.2656C14.7778 21.8223 15.3465 22.208 15.8667 22.0225Z" fill="white"/>
</svg>
