<svg width="17" height="18" viewBox="0 0 17 18" fill="none" xmlns="http://www.w3.org/2000/svg">
<path d="M14.8605 4.18604H6.48837C5.67921 4.18604 5.02325 4.84199 5.02325 5.65115V16.5349C5.02325 17.344 5.67921 18 6.48837 18H14.8605C15.6696 18 16.3256 17.344 16.3256 16.5349V5.65115C16.3256 4.84199 15.6696 4.18604 14.8605 4.18604Z" fill="#2D2D2D"/>
<path d="M11.3023 3.34884V1.46512C11.3001 1.07722 11.1451 0.705839 10.8708 0.431551C10.5965 0.157263 10.2251 0.00219776 9.83721 0H1.46512C1.07722 0.00219776 0.705839 0.157263 0.431551 0.431551C0.157263 0.705839 0.00219776 1.07722 0 1.46512V12.3488C0.00219776 12.7367 0.157263 13.1081 0.431551 13.3824C0.705839 13.6567 1.07722 13.8118 1.46512 13.814H4.18605V5.02326C4.18605 4.57917 4.36246 4.15328 4.67647 3.83926C4.99049 3.52525 5.41638 3.34884 5.86047 3.34884H11.3023Z" fill="#2D2D2D"/>
</svg>
