<svg width="45" height="45" viewBox="0 0 45 45" fill="none" xmlns="http://www.w3.org/2000/svg">
<path fill-rule="evenodd" clip-rule="evenodd" d="M23.2989 5.15053V0H21.72V5.14895C17.386 5.33494 13.2793 7.13941 10.211 10.206C7.14265 13.2725 5.33584 17.3782 5.14737 21.7121H0V23.2911H5.14895C5.33813 27.6243 7.14501 31.7292 10.2129 34.7953C13.2807 37.8614 17.3866 39.6659 21.72 39.8526V45H23.2989V39.8526C27.6308 39.6611 31.7335 37.853 34.7977 34.785C37.8619 31.7171 39.6649 27.6121 39.8511 23.28H45V21.701H39.8526C39.6618 17.3724 37.8564 13.2722 34.7923 10.2087C31.7282 7.14516 27.6277 5.34054 23.2989 5.15053ZM6.71053 22.5C6.71053 13.7542 13.7526 6.71053 22.5 6.71053C31.2474 6.71053 38.2895 13.7542 38.2895 22.5C38.2895 31.2442 31.2474 38.2895 22.5 38.2895C20.4253 38.2936 18.3703 37.8881 16.4527 37.096C14.5352 36.304 12.7929 35.1411 11.3259 33.6741C9.85886 32.2071 8.69597 30.4648 7.90395 28.5473C7.11193 26.6297 6.70636 24.5747 6.71053 22.5ZM13.8158 22.5C13.8158 20.1968 14.7307 17.9879 16.3593 16.3593C17.9879 14.7307 20.1968 13.8158 22.5 13.8158C24.8032 13.8158 27.0121 14.7307 28.6407 16.3593C30.2693 17.9879 31.1842 20.1968 31.1842 22.5C31.1842 24.8032 30.2693 27.0121 28.6407 28.6407C27.0121 30.2693 24.8032 31.1842 22.5 31.1842C20.1968 31.1842 17.9879 30.2693 16.3593 28.6407C14.7307 27.0121 13.8158 24.8032 13.8158 22.5ZM22.5 12.2368C19.7778 12.2368 17.1672 13.3182 15.2423 15.2431C13.3174 17.1679 12.2361 19.7786 12.2361 22.5008C12.2361 25.223 13.3174 27.8336 15.2423 29.7585C17.1672 31.6834 19.7778 32.7647 22.5 32.7647C25.222 32.7647 27.8324 31.6834 29.7571 29.7587C31.6819 27.834 32.7632 25.2235 32.7632 22.5016C32.7632 19.7796 31.6819 17.1691 29.7571 15.2444C27.8324 13.3197 25.222 12.2368 22.5 12.2368Z" fill="black"/>
</svg>
