<svg width="18" height="18" viewBox="0 0 18 18" fill="none" xmlns="http://www.w3.org/2000/svg">
<g clip-path="url(#clip0_167_55)">
<path d="M7.3125 6.1875C7.3125 3.70195 9.32695 1.6875 11.8125 1.6875C14.298 1.6875 16.3125 3.70195 16.3125 6.1875C16.3125 8.67305 14.298 10.6875 11.8125 10.6875C11.4469 10.6875 11.0918 10.6453 10.7543 10.5609C10.4695 10.4906 10.1672 10.575 9.95977 10.7859L8.9332 11.8125H7.03125C6.56367 11.8125 6.1875 12.1887 6.1875 12.6562V14.0625H4.78125C4.31367 14.0625 3.9375 14.4387 3.9375 14.9062V16.3125H1.6875V13.5668L7.21406 8.04023C7.42148 7.83281 7.50586 7.53047 7.43906 7.2457C7.3582 6.9082 7.3125 6.55312 7.3125 6.1875ZM11.8125 0C8.39531 0 5.625 2.77031 5.625 6.1875C5.625 6.52148 5.64961 6.84844 5.70234 7.16836L0.246094 12.6211C0.0878906 12.7793 0 12.9937 0 13.2188V17.1562C0 17.6238 0.376172 18 0.84375 18H4.78125C5.24883 18 5.625 17.6238 5.625 17.1562V15.75H7.03125C7.49883 15.75 7.875 15.3738 7.875 14.9062V13.5H9.28125C9.50625 13.5 9.7207 13.4121 9.87891 13.2539L10.8352 12.2977C11.1551 12.3469 11.482 12.375 11.816 12.375C15.2332 12.375 18.0035 9.60469 18.0035 6.1875C18.0035 2.77031 15.2297 0 11.8125 0ZM12.9375 6.1875C13.2359 6.1875 13.522 6.06897 13.733 5.85799C13.944 5.64702 14.0625 5.36087 14.0625 5.0625C14.0625 4.76413 13.944 4.47798 13.733 4.267C13.522 4.05603 13.2359 3.9375 12.9375 3.9375C12.6391 3.9375 12.353 4.05603 12.142 4.267C11.931 4.47798 11.8125 4.76413 11.8125 5.0625C11.8125 5.36087 11.931 5.64702 12.142 5.85799C12.353 6.06897 12.6391 6.1875 12.9375 6.1875Z" fill="#2D2D2D"/>
</g>
<defs>
<clipPath id="clip0_167_55">
<rect width="18" height="18" fill="white"/>
</clipPath>
</defs>
</svg>
