<svg width="21" height="18" viewBox="0 0 21 18" fill="none" xmlns="http://www.w3.org/2000/svg">
<path d="M20.9679 9.14516C20.968 8.99732 20.9256 8.85257 20.8456 8.72823C20.7656 8.60389 20.6515 8.50523 20.5169 8.44406L3.20037 0.573084C2.88644 0.429125 2.53724 0.380195 2.19584 0.432331C1.85443 0.484467 1.53575 0.635388 1.2791 0.866482C1.02244 1.09757 0.83904 1.39873 0.751504 1.73282C0.663968 2.0669 0.676127 2.41931 0.786485 2.74656L2.66353 8.37552L9.32103 8.37552C9.52269 8.37903 9.71491 8.4616 9.85628 8.60545C9.99766 8.7493 10.0769 8.94292 10.0769 9.14462C10.0769 9.34631 9.99766 9.53993 9.85628 9.68378C9.71491 9.82764 9.52269 9.91021 9.32103 9.91371L2.66353 9.91371L0.786485 15.5427C0.67962 15.8537 0.662743 16.1886 0.737796 16.5089C0.81285 16.8291 0.976784 17.1216 1.21074 17.3528C1.23358 17.3757 1.25697 17.399 1.27981 17.4219C1.53466 17.6552 1.85286 17.8079 2.19433 17.8608C2.5358 17.9136 2.88528 17.8643 3.19874 17.7189L20.5175 9.84572C20.6519 9.7845 20.7658 9.68589 20.8457 9.56166C20.9255 9.43744 20.968 9.29284 20.9679 9.14516Z" fill="#2D2D2D"/>
</svg>
