<svg width="45" height="45" viewBox="0 0 45 45" fill="none" xmlns="http://www.w3.org/2000/svg">
<path fill-rule="evenodd" clip-rule="evenodd" d="M18.75 5.81128L19.0963 6.04253L24.7213 9.79253L25.5012 10.3125L24.7213 10.8325L20.815 13.4363H26.25C30.215 13.4363 33.5437 15.995 34.775 19.53L34.7762 19.5338L34.7813 19.5488L38.7138 30.39C38.9263 30.8313 39.0625 31.3325 39.0625 31.8738C39.0625 32.7855 38.7003 33.6598 38.0557 34.3045C37.411 34.9491 36.5367 35.3113 35.625 35.3113H31.5188C31.382 36.2616 30.9356 37.1404 30.2487 37.8113H41.25V39.0613H3.75V37.8113H7.25125C6.56449 37.1403 6.11811 36.2616 5.98125 35.3113H3.75V34.0613H35.625C36.2052 34.0613 36.7616 33.8308 37.1718 33.4206C37.582 33.0103 37.8125 32.4539 37.8125 31.8738C37.8125 31.5363 37.7263 31.2125 37.5775 30.9113L37.5612 30.88L37.55 30.8475L36.4488 27.8113H24.6875V19.0638H33.2275C31.9588 16.4725 29.3213 14.6863 26.25 14.6863H3.75V13.4363H16.685L12.7787 10.8325L11.9987 10.3125L12.7787 9.79253L18.4037 6.04253L18.75 5.81128ZM33.7287 20.3125H25.9375V26.56H35.995L33.7287 20.3125ZM22.8562 35.31C22.9962 36.2838 23.4563 37.1538 24.1263 37.81H13.375C14.0614 37.1389 14.5073 36.2602 14.6438 35.31H22.8562ZM7.25 35.31H13.375C13.2305 36.0157 12.8468 36.6498 12.2889 37.1053C11.7309 37.5608 11.0328 37.8097 10.3125 37.81C9.59222 37.8097 8.89412 37.5608 8.33615 37.1053C7.77817 36.6498 7.39452 36.0157 7.25 35.31ZM24.125 35.31C24.415 36.735 25.6763 37.81 27.1875 37.81C28.6987 37.81 29.96 36.735 30.25 35.31H24.125ZM18.75 13.3125L23.2488 10.3125L18.75 7.31503L14.2513 10.3125L18.75 13.3125ZM13.4375 19.0625H22.1875V27.8125H13.4375V19.0625ZM14.6875 20.3125V26.5625H20.9375V20.3125H14.6875ZM3.75 20.3125H9.6875V26.5625H3.75V27.8125H10.9375V19.0625H3.75V20.3125Z" fill="#09090B"/>
</svg>
