<svg width="45" height="45" viewBox="0 0 45 45" fill="none" xmlns="http://www.w3.org/2000/svg">
<path fill-rule="evenodd" clip-rule="evenodd" d="M9.0625 10.3125C9.0625 8.5875 10.4625 7.1875 12.1875 7.1875H35.9375V30.315H12.1875C11.6054 30.3142 11.029 30.4299 10.4923 30.6553C9.95563 30.8808 9.46947 31.2113 9.0625 31.6275V10.3125ZM7.8125 35.315V10.3125C7.8125 7.8975 9.7725 5.9375 12.1875 5.9375H37.1875V31.565H12.1875C11.374 31.588 10.6015 31.9273 10.0343 32.5109C9.467 33.0944 9.14965 33.8762 9.14965 34.69C9.14965 35.5038 9.467 36.2856 10.0343 36.8691C10.6015 37.4527 11.374 37.792 12.1875 37.815L36.5625 37.8125H37.1875V39.0625H36.5625L12.1875 39.065C11.1353 39.065 10.1184 38.6859 9.32296 37.9973C8.52751 37.3086 8.00682 36.3563 7.85625 35.315H7.8125ZM12.1875 34.065H11.5625V35.315H37.1875V34.065H12.1875Z" fill="#09090B"/>
</svg>
