<svg width="45" height="41" viewBox="0 0 45 41" fill="none" xmlns="http://www.w3.org/2000/svg">
<path fill-rule="evenodd" clip-rule="evenodd" d="M1.40625 3.86719H16.1719V2.46094H1.40625V3.86719ZM20.0391 28.4766C20.0391 23.0484 24.4547 18.6328 29.8828 18.6328C35.3109 18.6328 39.7266 23.0484 39.7266 28.4766C39.7266 33.9019 35.3109 38.3203 29.8828 38.3203C24.4547 38.3203 20.0391 33.9019 20.0391 28.4766ZM29.8828 17.2266C23.6784 17.2266 18.6328 22.2736 18.6328 28.4766C18.6328 34.6781 23.6784 39.7266 29.8828 39.7266C36.0872 39.7266 41.1328 34.6781 41.1328 28.4766C41.1328 22.2736 36.0872 17.2266 29.8828 17.2266ZM28.8281 3.86719H20.3906V2.46094H28.8281V3.86719ZM20.3906 10.1953H28.8281V8.78906H20.3906V10.1953ZM43.5938 10.1953H33.0469V8.78906H43.5938V10.1953ZM33.0469 3.86719H43.5938V2.46094H33.0469V3.86719ZM16.1719 10.1953H1.40625V8.78906H16.1719V10.1953ZM1.40625 16.5234H16.1719V15.1172H1.40625V16.5234ZM11.9531 22.8516H1.40625V21.4453H11.9531V22.8516ZM1.40625 29.1797H11.9531V27.7734H1.40625V29.1797ZM11.9531 35.5078H1.40625V34.1016H11.9531V35.5078ZM29.1797 21.0938V29.1797H37.2656V27.7734H30.5859V21.0938H29.1797Z" fill="#09090B"/>
</svg>
